<mxfile host="Electron" modified="2024-01-20T17:15:46.930Z" agent="Mozilla/5.0 (Windows NT 10.0; Win64; x64) AppleWebKit/537.36 (KHTML, like Gecko) draw.io/21.3.7 Chrome/112.0.5615.204 Electron/24.5.0 Safari/537.36" etag="wF-GM7PGDSg7iJ0AXdGN" version="21.3.7" type="device">
  <diagram name="Page-1" id="JNBYN2EKiGY3xbyugu-e">
    <mxGraphModel dx="829" dy="485" grid="1" gridSize="10" guides="1" tooltips="1" connect="1" arrows="1" fold="1" page="1" pageScale="1" pageWidth="1654" pageHeight="1169" math="0" shadow="0">
      <root>
        <mxCell id="0" />
        <mxCell id="1" parent="0" />
        <mxCell id="Nwm49hcd064BZAZEZRtz-7" style="edgeStyle=orthogonalEdgeStyle;rounded=0;orthogonalLoop=1;jettySize=auto;html=1;entryX=0;entryY=0.5;entryDx=0;entryDy=0;startArrow=classic;startFill=1;" edge="1" parent="1" source="Nwm49hcd064BZAZEZRtz-1" target="Nwm49hcd064BZAZEZRtz-5">
          <mxGeometry relative="1" as="geometry" />
        </mxCell>
        <mxCell id="Nwm49hcd064BZAZEZRtz-11" style="edgeStyle=orthogonalEdgeStyle;rounded=0;orthogonalLoop=1;jettySize=auto;html=1;entryX=0;entryY=0.5;entryDx=0;entryDy=0;" edge="1" parent="1" source="Nwm49hcd064BZAZEZRtz-12" target="Nwm49hcd064BZAZEZRtz-2">
          <mxGeometry relative="1" as="geometry" />
        </mxCell>
        <mxCell id="Nwm49hcd064BZAZEZRtz-1" value="UI" style="rounded=0;whiteSpace=wrap;html=1;" vertex="1" parent="1">
          <mxGeometry x="120" y="400" width="120" height="60" as="geometry" />
        </mxCell>
        <mxCell id="Nwm49hcd064BZAZEZRtz-10" style="edgeStyle=orthogonalEdgeStyle;rounded=0;orthogonalLoop=1;jettySize=auto;html=1;entryX=0;entryY=0.5;entryDx=0;entryDy=0;entryPerimeter=0;endArrow=classic;endFill=1;startArrow=classic;startFill=1;" edge="1" parent="1" source="Nwm49hcd064BZAZEZRtz-2" target="Nwm49hcd064BZAZEZRtz-3">
          <mxGeometry relative="1" as="geometry" />
        </mxCell>
        <mxCell id="Nwm49hcd064BZAZEZRtz-2" value="API" style="rounded=0;whiteSpace=wrap;html=1;" vertex="1" parent="1">
          <mxGeometry x="520" y="400" width="120" height="60" as="geometry" />
        </mxCell>
        <mxCell id="Nwm49hcd064BZAZEZRtz-3" value="Base de donnÃ©e" style="shape=cylinder3;whiteSpace=wrap;html=1;boundedLbl=1;backgroundOutline=1;size=15;" vertex="1" parent="1">
          <mxGeometry x="740" y="380" width="60" height="100" as="geometry" />
        </mxCell>
        <mxCell id="Nwm49hcd064BZAZEZRtz-8" style="edgeStyle=orthogonalEdgeStyle;rounded=0;orthogonalLoop=1;jettySize=auto;html=1;entryX=0;entryY=0.5;entryDx=0;entryDy=0;startArrow=classic;startFill=1;" edge="1" parent="1" source="Nwm49hcd064BZAZEZRtz-5" target="Nwm49hcd064BZAZEZRtz-2">
          <mxGeometry relative="1" as="geometry" />
        </mxCell>
        <mxCell id="Nwm49hcd064BZAZEZRtz-5" value="Gestionnaire d&#39;horraire" style="rounded=0;whiteSpace=wrap;html=1;" vertex="1" parent="1">
          <mxGeometry x="320" y="310" width="120" height="60" as="geometry" />
        </mxCell>
        <mxCell id="Nwm49hcd064BZAZEZRtz-13" value="" style="edgeStyle=orthogonalEdgeStyle;rounded=0;orthogonalLoop=1;jettySize=auto;html=1;entryX=0;entryY=0.5;entryDx=0;entryDy=0;" edge="1" parent="1" source="Nwm49hcd064BZAZEZRtz-1" target="Nwm49hcd064BZAZEZRtz-2">
          <mxGeometry relative="1" as="geometry">
            <mxPoint x="240" y="430" as="sourcePoint" />
            <mxPoint x="520" y="430" as="targetPoint" />
          </mxGeometry>
        </mxCell>
        <mxCell id="Nwm49hcd064BZAZEZRtz-12" value="Recepeteur" style="rounded=1;whiteSpace=wrap;html=1;" vertex="1" parent="1">
          <mxGeometry x="320" y="400" width="120" height="60" as="geometry" />
        </mxCell>
      </root>
    </mxGraphModel>
  </diagram>
</mxfile>
